<?xml version="1.0" encoding="UTF-8"?>
<svg xmlns="http://www.w3.org/2000/svg" style="display: none">
  <!-- Brand glyphs from Simple Icons (https://simpleicons.org), CC0-1.0.
       Single-path, 24x24, fill-based — rendered in currentColor by
       src/shared/icons/BrandIcon.tsx. Keyed by the notifier plugin_name
       (registry key), e.g. #brand-slack. Regenerate, don't hand-edit. -->

  <!-- chat -->
  <symbol id="brand-slack" viewBox="0 0 24 24"><path d="M5.042 15.165a2.528 2.528 0 0 1-2.52 2.523A2.528 2.528 0 0 1 0 15.165a2.527 2.527 0 0 1 2.522-2.52h2.52v2.52zM6.313 15.165a2.527 2.527 0 0 1 2.521-2.52 2.527 2.527 0 0 1 2.521 2.52v6.313A2.528 2.528 0 0 1 8.834 24a2.528 2.528 0 0 1-2.521-2.522v-6.313zM8.834 5.042a2.528 2.528 0 0 1-2.521-2.52A2.528 2.528 0 0 1 8.834 0a2.528 2.528 0 0 1 2.521 2.522v2.52H8.834zM8.834 6.313a2.528 2.528 0 0 1 2.521 2.521 2.528 2.528 0 0 1-2.521 2.521H2.522A2.528 2.528 0 0 1 0 8.834a2.528 2.528 0 0 1 2.522-2.521h6.312zM18.956 8.834a2.528 2.528 0 0 1 2.522-2.521A2.528 2.528 0 0 1 24 8.834a2.528 2.528 0 0 1-2.522 2.521h-2.522V8.834zM17.688 8.834a2.528 2.528 0 0 1-2.523 2.521 2.527 2.527 0 0 1-2.52-2.521V2.522A2.527 2.527 0 0 1 15.165 0a2.528 2.528 0 0 1 2.523 2.522v6.312zM15.165 18.956a2.528 2.528 0 0 1 2.523 2.522A2.528 2.528 0 0 1 15.165 24a2.527 2.527 0 0 1-2.52-2.522v-2.522h2.52zM15.165 17.688a2.527 2.527 0 0 1-2.52-2.523 2.526 2.526 0 0 1 2.52-2.52h6.313A2.527 2.527 0 0 1 24 15.165a2.528 2.528 0 0 1-2.522 2.523h-6.313z"/></symbol>  <!-- Slack -->
  <symbol id="brand-mattermost" viewBox="0 0 24 24"><path d="M12.081 0C7.048-.034 2.339 3.125.637 8.153c-2.125 6.276 1.24 13.086 7.516 15.21 6.276 2.125 13.086-1.24 15.21-7.516 1.727-5.1-.172-10.552-4.311-13.557l.126 2.547c2.065 2.282 2.88 5.512 1.852 8.549-1.534 4.532-6.594 6.915-11.3 5.321-4.708-1.593-7.28-6.559-5.745-11.092 1.031-3.046 3.655-5.121 6.694-5.67l1.642-1.94A4.87 4.87 0 0 0 12.08 0zm3.528 1.094a.284.284 0 0 0-.123.024l-.004.001a.33.33 0 0 0-.109.071c-.145.142-.657.828-.657.828L13.6 3.4l-1.3 1.585-2.232 2.776s-1.024 1.278-.798 2.851c.226 1.574 1.396 2.34 2.304 2.648.907.307 2.302.408 3.438-.704 1.135-1.112 1.098-2.75 1.098-2.75l-.087-3.56-.07-2.05-.047-1.775s.01-.856-.02-1.057a.33.33 0 0 0-.035-.107l-.006-.012-.007-.011a.277.277 0 0 0-.229-.14z"/></symbol>  <!-- Mattermost -->
  <symbol id="brand-teams" viewBox="0 0 24 24"><path d="M20.625 8.127q-.55 0-1.025-.205-.475-.205-.832-.563-.358-.357-.563-.832Q18 6.053 18 5.502q0-.54.205-1.02t.563-.837q.357-.358.832-.563.474-.205 1.025-.205.54 0 1.02.205t.837.563q.358.357.563.837.205.48.205 1.02 0 .55-.205 1.025-.205.475-.563.832-.357.358-.837.563-.48.205-1.02.205zm0-3.75q-.469 0-.797.328-.328.328-.328.797 0 .469.328.797.328.328.797.328.469 0 .797-.328.328-.328.328-.797 0-.469-.328-.797-.328-.328-.797-.328zM24 10.002v5.578q0 .774-.293 1.46-.293.685-.803 1.194-.51.51-1.195.803-.686.293-1.459.293-.445 0-.908-.105-.463-.106-.85-.329-.293.95-.855 1.729-.563.78-1.319 1.336-.756.557-1.67.861-.914.305-1.898.305-1.148 0-2.162-.398-1.014-.399-1.805-1.102-.79-.703-1.312-1.664t-.674-2.086h-5.8q-.411 0-.704-.293T0 16.881V6.873q0-.41.293-.703t.703-.293h8.59q-.34-.715-.34-1.5 0-.727.275-1.365.276-.639.75-1.114.475-.474 1.114-.75.638-.275 1.365-.275t1.365.275q.639.276 1.114.75.474.475.75 1.114.275.638.275 1.365t-.275 1.365q-.276.639-.75 1.113-.475.475-1.114.75-.638.276-1.365.276-.188 0-.375-.024-.188-.023-.375-.058v1.078h10.875q.469 0 .797.328.328.328.328.797zM12.75 2.373q-.41 0-.78.158-.368.158-.638.434-.27.275-.428.639-.158.363-.158.773 0 .41.158.78.159.368.428.638.27.27.639.428.369.158.779.158.41 0 .773-.158.364-.159.64-.428.274-.27.433-.639.158-.369.158-.779 0-.41-.158-.773-.159-.364-.434-.64-.275-.275-.639-.433-.363-.158-.773-.158zM6.937 9.814h2.25V7.94H2.814v1.875h2.25v6h1.875zm10.313 7.313v-6.75H12v6.504q0 .41-.293.703t-.703.293H8.309q.152.809.556 1.5.405.691.985 1.19.58.497 1.318.779.738.281 1.582.281.926 0 1.746-.352.82-.351 1.436-.966.615-.616.966-1.43.352-.815.352-1.752zm5.25-1.547v-5.203h-3.75v6.855q.305.305.691.452.387.146.809.146.469 0 .879-.176.41-.175.715-.48.304-.305.48-.715t.176-.879Z"/></symbol>  <!-- Microsoft Teams -->
  <symbol id="brand-discord" viewBox="0 0 24 24"><path d="M20.317 4.3698a19.7913 19.7913 0 00-4.8851-1.5152.0741.0741 0 00-.0785.0371c-.211.3753-.4447.8648-.6083 1.2495-1.8447-.2762-3.68-.2762-5.4868 0-.1636-.3933-.4058-.8742-.6177-1.2495a.077.077 0 00-.0785-.037 19.7363 19.7363 0 00-4.8852 1.515.0699.0699 0 00-.0321.0277C.5334 9.0458-.319 13.5799.0992 18.0578a.0824.0824 0 00.0312.0561c2.0528 1.5076 4.0413 2.4228 5.9929 3.0294a.0777.0777 0 00.0842-.0276c.4616-.6304.8731-1.2952 1.226-1.9942a.076.076 0 00-.0416-.1057c-.6528-.2476-1.2743-.5495-1.8722-.8923a.077.077 0 01-.0076-.1277c.1258-.0943.2517-.1923.3718-.2914a.0743.0743 0 01.0776-.0105c3.9278 1.7933 8.18 1.7933 12.0614 0a.0739.0739 0 01.0785.0095c.1202.099.246.1981.3728.2924a.077.077 0 01-.0066.1276 12.2986 12.2986 0 01-1.873.8914.0766.0766 0 00-.0407.1067c.3604.698.7719 1.3628 1.225 1.9932a.076.076 0 00.0842.0286c1.961-.6067 3.9495-1.5219 6.0023-3.0294a.077.077 0 00.0313-.0552c.5004-5.177-.8382-9.6739-3.5485-13.6604a.061.061 0 00-.0312-.0286zM8.02 15.3312c-1.1825 0-2.1569-1.0857-2.1569-2.419 0-1.3332.9555-2.4189 2.157-2.4189 1.2108 0 2.1757 1.0952 2.1568 2.419 0 1.3332-.9555 2.4189-2.1569 2.4189zm7.9748 0c-1.1825 0-2.1569-1.0857-2.1569-2.419 0-1.3332.9554-2.4189 2.1569-2.4189 1.2108 0 2.1757 1.0952 2.1568 2.419 0 1.3332-.946 2.4189-2.1568 2.4189Z"/></symbol>  <!-- Discord -->
  <symbol id="brand-telegram" viewBox="0 0 24 24"><path d="M11.944 0A12 12 0 0 0 0 12a12 12 0 0 0 12 12 12 12 0 0 0 12-12A12 12 0 0 0 12 0a12 12 0 0 0-.056 0zm4.962 7.224c.1-.002.321.023.465.14a.506.506 0 0 1 .171.325c.016.093.036.306.02.472-.18 1.898-.962 6.502-1.36 8.627-.168.9-.499 1.201-.82 1.23-.696.065-1.225-.46-1.9-.902-1.056-.693-1.653-1.124-2.678-1.8-1.185-.78-.417-1.21.258-1.91.177-.184 3.247-2.977 3.307-3.23.007-.032.014-.15-.056-.212s-.174-.041-.249-.024c-.106.024-1.793 1.14-5.061 3.345-.48.33-.913.49-1.302.48-.428-.008-1.252-.241-1.865-.44-.752-.245-1.349-.374-1.297-.789.027-.216.325-.437.893-.663 3.498-1.524 5.83-2.529 6.998-3.014 3.332-1.386 4.025-1.627 4.476-1.635z"/></symbol>  <!-- Telegram -->
  <symbol id="brand-googlechat" viewBox="0 0 24 24"><path d="M1.637 0C.733 0 0 .733 0 1.637v16.5c0 .904.733 1.636 1.637 1.636h3.955v3.323c0 .804.97 1.207 1.539.638l3.963-3.96h11.27c.903 0 1.636-.733 1.636-1.637V5.592L18.408 0Zm3.955 5.592h12.816v8.59H8.455l-2.863 2.863Z"/></symbol>  <!-- Google Chat -->

  <!-- oncall -->
  <symbol id="brand-pagerduty" viewBox="0 0 24 24"><path d="M16.965 1.18C15.085.164 13.769 0 10.683 0H3.73v14.55h6.926c2.743 0 4.8-.164 6.61-1.37 1.975-1.303 3.004-3.484 3.004-6.007 0-2.716-1.262-4.896-3.305-5.994zm-5.5 10.326h-4.21V3.113l3.977-.027c3.62-.028 5.43 1.234 5.43 4.128 0 3.113-2.248 4.292-5.197 4.292zM3.73 17.61h3.525V24H3.73Z"/></symbol>  <!-- PagerDuty -->
  <symbol id="brand-opsgenie" viewBox="0 0 24 24"><path d="M12.002 0a5.988 5.988 0 1 1 0 11.975 5.988 5.988 0 0 1 0-11.975zm9.723 13.026h-.03l-4.527-2.242a.671.671 0 0 0-.876.268 22.408 22.408 0 0 1-4.306 5.217 22.407 22.407 0 0 1-4.286-5.2.671.671 0 0 0-.876-.269l-4.535 2.226h-.03a.671.671 0 0 0-.248.902 28.85 28.85 0 0 0 4.55 5.933l-.002.001c.024.025.05.048.075.072.335.335.676.664 1.027.981.081.074.165.144.247.217.315.278.632.555.96.82.144.117.295.227.441.341.277.216.552.434.837.639.44.318.888.625 1.346.917a.963.963 0 0 0 1.007.017c.487-.312.962-.64 1.428-.98.068-.05.132-.103.2-.153.358-.266.713-.537 1.06-.82.234-.19.46-.39.688-.588.17-.147.34-.291.506-.442.295-.268.58-.545.864-.825.061-.06.127-.118.188-.179l-.004-.002a28.852 28.852 0 0 0 4.565-5.949.671.671 0 0 0-.269-.902z"/></symbol>  <!-- Opsgenie -->

  <!-- ticketing -->
  <symbol id="brand-jira" viewBox="0 0 24 24"><path d="M11.571 11.513H0a5.218 5.218 0 0 0 5.232 5.215h2.13v2.057A5.215 5.215 0 0 0 12.575 24V12.518a1.005 1.005 0 0 0-1.005-1.005zm5.723-5.756H5.736a5.215 5.215 0 0 0 5.215 5.214h2.129v2.058a5.218 5.218 0 0 0 5.215 5.214V6.758a1.001 1.001 0 0 0-1.001-1.001zM23.013 0H11.455a5.215 5.215 0 0 0 5.215 5.215h2.129v2.057A5.215 5.215 0 0 0 24 12.483V1.005A1.005 1.005 0 0 0 23.013 0z"/></symbol>  <!-- Atlassian Jira -->
  <symbol id="brand-statuspage" viewBox="0 0 24 24"><path d="M12.008 9.597a5.623 5.623 0 1 1 0 11.245 5.623 5.623 0 0 1 0-11.245zM.154 8.717l3.02 3.574a.639.639 0 0 0 .913.068c4.885-4.379 10.97-4.379 15.84 0a.642.642 0 0 0 .916-.068l3.006-3.574a.646.646 0 0 0-.075-.906c-7.1-6.204-16.462-6.204-23.555 0a.65.65 0 0 0-.065.906z"/></symbol>  <!-- Atlassian Statuspage -->

  <!-- push -->
  <symbol id="brand-ntfy" viewBox="0 0 24 24"><path d="M12.597 13.693v2.156h6.205v-2.156ZM5.183 6.549v2.363l3.591 1.901.023.01-.023.009-3.591 1.901v2.35l.386-.211 5.456-2.969V9.729ZM3.659 2.037C1.915 2.037.42 3.41.42 5.154v.002L.438 18.73 0 21.963l5.956-1.583h14.806c1.744 0 3.238-1.374 3.238-3.118V5.154c0-1.744-1.493-3.116-3.237-3.117h-.001zm0 2.2h17.104c.613.001 1.037.447 1.037.917v12.108c0 .47-.424.916-1.038.916H5.633l-3.026.915.031-.179-.017-13.76c0-.47.424-.917 1.038-.917z"/></symbol>  <!-- ntfy -->

  <!-- sms -->
  <symbol id="brand-twilio" viewBox="0 0 24 24"><path d="M12 0C5.381-.008.008 5.352 0 11.971V12c0 6.64 5.359 12 12 12 6.64 0 12-5.36 12-12 0-6.641-5.36-12-12-12zm0 20.801c-4.846.015-8.786-3.904-8.801-8.75V12c-.014-4.846 3.904-8.786 8.75-8.801H12c4.847-.014 8.786 3.904 8.801 8.75V12c.015 4.847-3.904 8.786-8.75 8.801H12zm5.44-11.76c0 1.359-1.12 2.479-2.481 2.479-1.366-.007-2.472-1.113-2.479-2.479 0-1.361 1.12-2.481 2.479-2.481 1.361 0 2.481 1.12 2.481 2.481zm0 5.919c0 1.36-1.12 2.48-2.481 2.48-1.367-.008-2.473-1.114-2.479-2.48 0-1.359 1.12-2.479 2.479-2.479 1.361-.001 2.481 1.12 2.481 2.479zm-5.919 0c0 1.36-1.12 2.48-2.479 2.48-1.368-.007-2.475-1.113-2.481-2.48 0-1.359 1.12-2.479 2.481-2.479 1.358-.001 2.479 1.12 2.479 2.479zm0-5.919c0 1.359-1.12 2.479-2.479 2.479-1.367-.007-2.475-1.112-2.481-2.479 0-1.361 1.12-2.481 2.481-2.481 1.358 0 2.479 1.12 2.479 2.481z"/></symbol>  <!-- Twilio -->

  <!-- generic -->
  <symbol id="brand-sns" viewBox="0 0 24 24"><path d="M6.763 10.036c0 .296.032.535.088.71.064.176.144.368.256.576.04.063.056.127.056.183 0 .08-.048.16-.152.24l-.503.335a.383.383 0 0 1-.208.072c-.08 0-.16-.04-.239-.112a2.47 2.47 0 0 1-.287-.375 6.18 6.18 0 0 1-.248-.471c-.622.734-1.405 1.101-2.347 1.101-.67 0-1.205-.191-1.596-.574-.391-.384-.59-.894-.59-1.533 0-.678.239-1.23.726-1.644.487-.415 1.133-.623 1.955-.623.272 0 .551.024.846.064.296.04.6.104.918.176v-.583c0-.607-.127-1.03-.375-1.277-.255-.248-.686-.367-1.3-.367-.28 0-.568.031-.863.103-.295.072-.583.16-.862.272a2.287 2.287 0 0 1-.28.104.488.488 0 0 1-.127.023c-.112 0-.168-.08-.168-.247v-.391c0-.128.016-.224.056-.28a.597.597 0 0 1 .224-.167c.279-.144.614-.264 1.005-.36a4.84 4.84 0 0 1 1.246-.151c.95 0 1.644.216 2.091.647.439.43.662 1.085.662 1.963v2.586zm-3.24 1.214c.263 0 .534-.048.822-.144.287-.096.543-.271.758-.51.128-.152.224-.32.272-.512.047-.191.08-.423.08-.694v-.335a6.66 6.66 0 0 0-.735-.136 6.02 6.02 0 0 0-.75-.048c-.535 0-.926.104-1.19.32-.263.215-.39.518-.39.917 0 .375.095.655.295.846.191.2.47.296.838.296zm6.41.862c-.144 0-.24-.024-.304-.08-.064-.048-.12-.16-.168-.311L7.586 5.55a1.398 1.398 0 0 1-.072-.32c0-.128.064-.2.191-.2h.783c.151 0 .255.025.31.08.065.048.113.16.16.312l1.342 5.284 1.245-5.284c.04-.16.088-.264.151-.312a.549.549 0 0 1 .32-.08h.638c.152 0 .256.025.32.08.063.048.12.16.151.312l1.261 5.348 1.381-5.348c.048-.16.104-.264.16-.312a.52.52 0 0 1 .311-.08h.743c.127 0 .2.065.2.2 0 .04-.009.08-.017.128a1.137 1.137 0 0 1-.056.2l-1.923 6.17c-.048.16-.104.263-.168.311a.51.51 0 0 1-.303.08h-.687c-.151 0-.255-.024-.32-.08-.063-.056-.119-.16-.15-.32l-1.238-5.148-1.23 5.14c-.04.16-.087.264-.15.32-.065.056-.177.08-.32.08zm10.256.215c-.415 0-.83-.048-1.229-.143-.399-.096-.71-.2-.918-.32-.128-.071-.215-.151-.247-.223a.563.563 0 0 1-.048-.224v-.407c0-.167.064-.247.183-.247.048 0 .096.008.144.024.048.016.12.048.2.08.271.12.566.215.878.279.319.064.63.096.95.096.502 0 .894-.088 1.165-.264a.86.86 0 0 0 .415-.758.777.777 0 0 0-.215-.559c-.144-.151-.416-.287-.807-.415l-1.157-.36c-.583-.183-1.014-.454-1.277-.813a1.902 1.902 0 0 1-.4-1.158c0-.335.073-.63.216-.886.144-.255.335-.479.575-.654.24-.184.51-.32.83-.415.32-.096.655-.136 1.006-.136.175 0 .359.008.535.032.183.024.35.056.518.088.16.04.312.08.455.127.144.048.256.096.336.144a.69.69 0 0 1 .24.2.43.43 0 0 1 .071.263v.375c0 .168-.064.256-.184.256a.83.83 0 0 1-.303-.096 3.652 3.652 0 0 0-1.532-.311c-.455 0-.815.071-1.062.223-.248.152-.375.383-.375.71 0 .224.08.416.24.567.159.152.454.304.877.44l1.134.358c.574.184.99.44 1.237.767.247.327.367.702.367 1.117 0 .343-.072.655-.207.926-.144.272-.336.511-.583.703-.248.2-.543.343-.886.447-.36.111-.734.167-1.142.167zM21.698 16.207c-2.626 1.94-6.442 2.969-9.722 2.969-4.598 0-8.74-1.7-11.87-4.526-.247-.223-.024-.527.272-.351 3.384 1.963 7.559 3.153 11.877 3.153 2.914 0 6.114-.607 9.06-1.852.439-.2.814.287.383.607zM22.792 14.961c-.336-.43-2.22-.207-3.074-.103-.255.032-.295-.192-.063-.36 1.5-1.053 3.967-.75 4.254-.399.287.36-.08 2.826-1.485 4.007-.215.184-.423.088-.327-.151.32-.79 1.03-2.57.695-2.994z"/></symbol>  <!-- Amazon Web Services (SNS) -->
</svg>
