<?xml version="1.0" encoding="utf-8"?>
<svg xmlns="http://www.w3.org/2000/svg" viewBox="0 0 173.2 200">
  <polygon fill="#1FA8D7" points="0,150 0,50 86.6,0 173.2,50 173.2,150 86.6,200"/>
  <polygon fill="#FFFFFF" points="86.6,133.3 57.7,116.7 57.7,83.3 86.6,66.7 115.5,83.3 144.3,66.7 86.6,33.3 28.9,66.7 28.9,133.3 86.6,166.7 144.3,133.3 115.5,116.7"/>
  <polygon fill="#FFFFFF" opacity="0.04" points="0,50 86.6,100 86.6,0"/>
  <polygon fill="#FFFFFF" opacity="0.04" points="0,150 86.6,200 86.6,100"/>
  <polygon fill="#FFFFFF" opacity="0.08" points="86.6,100 173.2,150 173.2,50"/>
  <polygon fill="#FFFFFF" opacity="0.08" points="173.2,150 86.6,100 86.6,200"/>
  <polygon fill="#FFFFFF" opacity="0.08" points="173.2,50 86.6,0 86.6,100"/>
</svg>
