<?xml version="1.0" encoding="UTF-8"?>
<svg xmlns="http://www.w3.org/2000/svg" style="display: none">
  <!-- Lucide v0.469.0 icon paths, MIT licensed.
       https://github.com/lucide-icons/lucide/blob/main/LICENSE -->

  <!-- Layout chevrons + close/check/more -->
  <symbol id="icon-chevron-down" viewBox="0 0 24 24"><path d="m6 9 6 6 6-6"/></symbol>
  <symbol id="icon-chevron-up" viewBox="0 0 24 24"><path d="m18 15-6-6-6 6"/></symbol>
  <symbol id="icon-chevron-right" viewBox="0 0 24 24"><path d="m9 18 6-6-6-6"/></symbol>
  <symbol id="icon-chevron-left" viewBox="0 0 24 24"><path d="m15 18-6-6 6-6"/></symbol>
  <symbol id="icon-x" viewBox="0 0 24 24"><path d="M18 6 6 18"/><path d="m6 6 12 12"/></symbol>
  <symbol id="icon-check" viewBox="0 0 24 24"><path d="M20 6 9 17l-5-5"/></symbol>
  <symbol id="icon-more-horizontal" viewBox="0 0 24 24"><circle cx="12" cy="12" r="1"/><circle cx="19" cy="12" r="1"/><circle cx="5" cy="12" r="1"/></symbol>

  <!-- Actions -->
  <symbol id="icon-plus" viewBox="0 0 24 24"><path d="M5 12h14"/><path d="M12 5v14"/></symbol>
  <symbol id="icon-refresh" viewBox="0 0 24 24"><path d="M3 12a9 9 0 0 1 9-9 9.75 9.75 0 0 1 6.74 2.74L21 8"/><path d="M21 3v5h-5"/><path d="M21 12a9 9 0 0 1-9 9 9.75 9.75 0 0 1-6.74-2.74L3 16"/><path d="M3 21v-5h5"/></symbol>
  <symbol id="icon-search" viewBox="0 0 24 24"><circle cx="11" cy="11" r="8"/><path d="m21 21-4.3-4.3"/></symbol>
  <symbol id="icon-filter" viewBox="0 0 24 24"><polygon points="22 3 2 3 10 12.46 10 19 14 21 14 12.46 22 3"/></symbol>
  <symbol id="icon-copy" viewBox="0 0 24 24"><rect width="14" height="14" x="8" y="8" rx="2" ry="2"/><path d="M4 16c-1.1 0-2-.9-2-2V4c0-1.1.9-2 2-2h10c1.1 0 2 .9 2 2"/></symbol>
  <symbol id="icon-edit" viewBox="0 0 24 24"><path d="M21.174 6.812a1 1 0 0 0-3.986-3.987L3.842 16.174a2 2 0 0 0-.5.83l-1.321 4.352a.5.5 0 0 0 .623.622l4.353-1.32a2 2 0 0 0 .83-.497z"/><path d="m15 5 4 4"/></symbol>
  <symbol id="icon-trash" viewBox="0 0 24 24"><path d="M3 6h18"/><path d="M19 6v14c0 1-1 2-2 2H7c-1 0-2-1-2-2V6"/><path d="M8 6V4c0-1 1-2 2-2h4c1 0 2 1 2 2v2"/></symbol>
  <symbol id="icon-save" viewBox="0 0 24 24"><path d="M15.2 3a2 2 0 0 1 1.4.6l3.8 3.8a2 2 0 0 1 .6 1.4V19a2 2 0 0 1-2 2H5a2 2 0 0 1-2-2V5a2 2 0 0 1 2-2z"/><path d="M17 21v-7a1 1 0 0 0-1-1H8a1 1 0 0 0-1 1v7"/><path d="M7 3v4a1 1 0 0 0 1 1h7"/></symbol>

  <!-- Status / state -->
  <symbol id="icon-eye" viewBox="0 0 24 24"><path d="M2 12s3-7 10-7 10 7 10 7-3 7-10 7-10-7-10-7Z"/><circle cx="12" cy="12" r="3"/></symbol>
  <symbol id="icon-eye-off" viewBox="0 0 24 24"><path d="M9.88 9.88a3 3 0 1 0 4.24 4.24"/><path d="M10.73 5.08A10.43 10.43 0 0 1 12 5c7 0 10 7 10 7a13.16 13.16 0 0 1-1.67 2.68"/><path d="M6.61 6.61A13.526 13.526 0 0 0 2 12s3 7 10 7a9.74 9.74 0 0 0 5.39-1.61"/><line x1="2" x2="22" y1="2" y2="22"/></symbol>
  <symbol id="icon-lock" viewBox="0 0 24 24"><rect width="18" height="11" x="3" y="11" rx="2" ry="2"/><path d="M7 11V7a5 5 0 0 1 10 0v4"/></symbol>
  <symbol id="icon-unlock" viewBox="0 0 24 24"><rect width="18" height="11" x="3" y="11" rx="2" ry="2"/><path d="M7 11V7a5 5 0 0 1 9.9-1"/></symbol>
  <symbol id="icon-alert-triangle" viewBox="0 0 24 24"><path d="m21.73 18-8-14a2 2 0 0 0-3.48 0l-8 14A2 2 0 0 0 4 21h16a2 2 0 0 0 1.73-3Z"/><path d="M12 9v4"/><path d="M12 17h.01"/></symbol>
  <symbol id="icon-info" viewBox="0 0 24 24"><circle cx="12" cy="12" r="10"/><path d="M12 16v-4"/><path d="M12 8h.01"/></symbol>
  <symbol id="icon-check-circle" viewBox="0 0 24 24"><path d="M22 11.08V12a10 10 0 1 1-5.93-9.14"/><polyline points="22 4 12 14.01 9 11.01"/></symbol>

  <!-- Navigation icons (sidebar) -->
  <symbol id="icon-bell" viewBox="0 0 24 24"><path d="M6 8a6 6 0 0 1 12 0c0 7 3 9 3 9H3s3-2 3-9"/><path d="M10.3 21a1.94 1.94 0 0 0 3.4 0"/></symbol>
  <symbol id="icon-bell-off" viewBox="0 0 24 24"><path d="M8.7 3A6 6 0 0 1 18 8a21.3 21.3 0 0 0 .6 5"/><path d="M17 17H3s3-2 3-9a4.67 4.67 0 0 1 .3-1.7"/><path d="M10.3 21a1.94 1.94 0 0 0 3.4 0"/><line x1="2" x2="22" y1="2" y2="22"/></symbol>
  <symbol id="icon-file-text" viewBox="0 0 24 24"><path d="M14.5 2H6a2 2 0 0 0-2 2v16a2 2 0 0 0 2 2h12a2 2 0 0 0 2-2V7.5L14.5 2z"/><polyline points="14 2 14 8 20 8"/><line x1="16" x2="8" y1="13" y2="13"/><line x1="16" x2="8" y1="17" y2="17"/><line x1="10" x2="8" y1="9" y2="9"/></symbol>
  <symbol id="icon-gauge" viewBox="0 0 24 24"><path d="m12 14 4-4"/><path d="M3.34 19a10 10 0 1 1 17.32 0"/></symbol>
  <symbol id="icon-activity" viewBox="0 0 24 24"><path d="M22 12h-2.48a2 2 0 0 0-1.93 1.46l-2.35 8.36a.5.5 0 0 1-.96 0L9.24 3.18a.5.5 0 0 0-.96 0l-2.35 8.36A2 2 0 0 1 4 13H2"/></symbol>
  <symbol id="icon-scale" viewBox="0 0 24 24"><path d="m16 16 3-8 3 8c-.87.65-1.92 1-3 1s-2.13-.35-3-1Z"/><path d="m2 16 3-8 3 8c-.87.65-1.92 1-3 1s-2.13-.35-3-1Z"/><path d="M7 21h10"/><path d="M12 3v18"/><path d="M3 7h2c2 0 5-1 7-2 2 1 5 2 7 2h2"/></symbol>
  <symbol id="icon-briefcase" viewBox="0 0 24 24"><rect width="20" height="14" x="2" y="7" rx="2" ry="2"/><path d="M16 21V5a2 2 0 0 0-2-2h-4a2 2 0 0 0-2 2v16"/></symbol>
  <symbol id="icon-megaphone" viewBox="0 0 24 24"><path d="m3 11 18-5v12L3 14v-3z"/><path d="M11.6 16.8a3 3 0 1 1-5.8-1.6"/></symbol>
  <symbol id="icon-code" viewBox="0 0 24 24"><polyline points="16 18 22 12 16 6"/><polyline points="8 6 2 12 8 18"/></symbol>
  <symbol id="icon-plug" viewBox="0 0 24 24"><path d="M12 22v-5"/><path d="M9 8V2"/><path d="M15 8V2"/><path d="M18 8v5a4 4 0 0 1-4 4h-4a4 4 0 0 1-4-4V8Z"/></symbol>
  <symbol id="icon-book" viewBox="0 0 24 24"><path d="M4 19.5v-15A2.5 2.5 0 0 1 6.5 2H20v20H6.5a2.5 2.5 0 0 1 0-5H20"/></symbol>
  <symbol id="icon-users" viewBox="0 0 24 24"><path d="M16 21v-2a4 4 0 0 0-4-4H6a4 4 0 0 0-4 4v2"/><circle cx="9" cy="7" r="4"/><path d="M22 21v-2a4 4 0 0 0-3-3.87"/><path d="M16 3.13a4 4 0 0 1 0 7.75"/></symbol>
  <symbol id="icon-user-plus" viewBox="0 0 24 24"><path d="M16 21v-2a4 4 0 0 0-4-4H6a4 4 0 0 0-4 4v2"/><circle cx="9" cy="7" r="4"/><line x1="19" x2="19" y1="8" y2="14"/><line x1="22" x2="16" y1="11" y2="11"/></symbol>
  <symbol id="icon-layers" viewBox="0 0 24 24"><path d="m12.83 2.18 8.94 4.47a2 2 0 0 1 0 3.58l-8.94 4.47a2 2 0 0 1-1.66 0L2.23 10.23a2 2 0 0 1 0-3.58l8.94-4.47a2 2 0 0 1 1.66 0Z"/><path d="m22 17.65-9.17 4.16a2 2 0 0 1-1.66 0L2 17.65"/><path d="m22 12.65-9.17 4.16a2 2 0 0 1-1.66 0L2 12.65"/></symbol>
  <symbol id="icon-settings" viewBox="0 0 24 24"><path d="M12.22 2h-.44a2 2 0 0 0-2 2v.18a2 2 0 0 1-1 1.73l-.43.25a2 2 0 0 1-2 0l-.15-.08a2 2 0 0 0-2.73.73l-.22.38a2 2 0 0 0 .73 2.73l.15.1a2 2 0 0 1 1 1.72v.51a2 2 0 0 1-1 1.74l-.15.09a2 2 0 0 0-.73 2.73l.22.38a2 2 0 0 0 2.73.73l.15-.08a2 2 0 0 1 2 0l.43.25a2 2 0 0 1 1 1.73V20a2 2 0 0 0 2 2h.44a2 2 0 0 0 2-2v-.18a2 2 0 0 1 1-1.73l.43-.25a2 2 0 0 1 2 0l.15.08a2 2 0 0 0 2.73-.73l.22-.39a2 2 0 0 0-.73-2.73l-.15-.08a2 2 0 0 1-1-1.74v-.5a2 2 0 0 1 1-1.74l.15-.09a2 2 0 0 0 .73-2.73l-.22-.38a2 2 0 0 0-2.73-.73l-.15.08a2 2 0 0 1-2 0l-.43-.25a2 2 0 0 1-1-1.73V4a2 2 0 0 0-2-2z"/><circle cx="12" cy="12" r="3"/></symbol>
  <symbol id="icon-sliders" viewBox="0 0 24 24"><line x1="4" x2="4" y1="21" y2="14"/><line x1="4" x2="4" y1="10" y2="3"/><line x1="12" x2="12" y1="21" y2="12"/><line x1="12" x2="12" y1="8" y2="3"/><line x1="20" x2="20" y1="21" y2="16"/><line x1="20" x2="20" y1="12" y2="3"/><line x1="2" x2="6" y1="14" y2="14"/><line x1="10" x2="14" y1="8" y2="8"/><line x1="18" x2="22" y1="16" y2="16"/></symbol>

  <!-- Theme -->
  <symbol id="icon-sun" viewBox="0 0 24 24"><circle cx="12" cy="12" r="4"/><path d="M12 2v2"/><path d="M12 20v2"/><path d="m4.93 4.93 1.41 1.41"/><path d="m17.66 17.66 1.41 1.41"/><path d="M2 12h2"/><path d="M20 12h2"/><path d="m6.34 17.66-1.41 1.41"/><path d="m19.07 4.93-1.41 1.41"/></symbol>
  <symbol id="icon-moon" viewBox="0 0 24 24"><path d="M12 3a6 6 0 0 0 9 9 9 9 0 1 1-9-9Z"/></symbol>

  <!-- Workflow -->
  <symbol id="icon-thumbs-up" viewBox="0 0 24 24"><path d="M7 10v12"/><path d="M15 5.88 14 10h5.83a2 2 0 0 1 1.92 2.56l-2.33 8A2 2 0 0 1 17.5 22H4a2 2 0 0 1-2-2v-8a2 2 0 0 1 2-2h2.76a2 2 0 0 0 1.79-1.11L12 2h0a3.13 3.13 0 0 1 3 3.88Z"/></symbol>
  <symbol id="icon-rotate-cw" viewBox="0 0 24 24"><path d="M21 12a9 9 0 1 1-9-9c2.52 0 4.93 1 6.74 2.74L21 8"/><path d="M21 3v5h-5"/></symbol>
  <symbol id="icon-message-square" viewBox="0 0 24 24"><path d="M21 15a2 2 0 0 1-2 2H7l-4 4V5a2 2 0 0 1 2-2h14a2 2 0 0 1 2 2z"/></symbol>
  <symbol id="icon-download" viewBox="0 0 24 24"><path d="M21 15v4a2 2 0 0 1-2 2H5a2 2 0 0 1-2-2v-4"/><polyline points="7 10 12 15 17 10"/><line x1="12" x2="12" y1="15" y2="3"/></symbol>
  <symbol id="icon-upload" viewBox="0 0 24 24"><path d="M21 15v4a2 2 0 0 1-2 2H5a2 2 0 0 1-2-2v-4"/><polyline points="17 8 12 3 7 8"/><line x1="12" x2="12" y1="3" y2="15"/></symbol>
</svg>
